<svg width="80" height="80" viewBox="0 0 80 80" fill="none" xmlns="http://www.w3.org/2000/svg">
<g clip-path="url(#clip0_67_6680)">
<path d="M76.3232 35.0708H62.4646V22.384H73.8184C75.8453 22.384 77.4951 20.7349 77.4951 18.7073V3.67676C77.4951 1.64978 75.8453 0 73.8184 0H48.7677C46.7401 0 45.0909 1.64978 45.0909 3.67676V10.0201H37.4146V6.18164C37.4146 2.77344 34.6411 0 31.2323 0H6.18164C2.77344 0 0 2.77344 0 6.18164V76.3232C0 78.3502 1.64978 80 3.67676 80H33.7372C35.7648 80 37.4139 78.3502 37.4139 76.3232V58.7073H42.5854V76.3232C42.5854 78.3508 44.2352 80 46.2622 80H76.3232C78.3502 80 80 78.3502 80 76.3232V38.7476C80 36.72 78.3502 35.0708 76.3232 35.0708ZM77.6562 38.7476V45.0909H67.2235C67.3853 44.6771 67.475 44.2279 67.475 43.7579C67.475 41.7303 65.8252 40.0806 63.7982 40.0806C61.7706 40.0806 60.1208 41.7303 60.1208 43.7579C60.1208 44.2279 60.2106 44.6771 60.3723 45.0909H57.4548V41.2524C57.4548 40.6055 56.9299 40.0806 56.283 40.0806H48.7677C48.1207 40.0806 47.5958 40.6055 47.5958 41.2524V45.0909H44.9298V38.7476C44.9298 38.0121 45.528 37.4146 46.2628 37.4146H76.3232C77.0581 37.4146 77.6562 38.0121 77.6562 38.7476ZM62.4646 43.7573C62.4646 43.0225 63.0627 42.4243 63.7976 42.4243C64.5331 42.4243 65.1312 43.0225 65.1312 43.7573C65.1312 44.4928 64.5331 45.0903 63.7976 45.0903C63.0627 45.0903 62.4646 44.4928 62.4646 43.7573ZM49.9396 45.0909V42.4243H55.1111V45.0909H49.9396ZM73.8184 20.0403H69.9799V9.85901H75.1514V18.7073C75.1514 19.4421 74.5532 20.0403 73.8184 20.0403ZM75.1514 3.67676V7.51526H69.9799V2.34375H73.8177C74.5532 2.34375 75.1514 2.94189 75.1514 3.67676ZM47.4347 3.67676C47.4347 2.94189 48.0328 2.34375 48.7677 2.34375H67.6361V20.0403H48.7677C48.0322 20.0403 47.4347 19.4421 47.4347 18.7073V3.67676ZM2.34375 52.4445H4.9292C4.97375 52.4445 5.00977 52.4805 5.00977 52.525V61.2927C5.00977 61.3373 4.97375 61.3733 4.9292 61.3733H2.34375V52.4445ZM2.34375 31.1517H4.9292C4.97375 31.1517 5.00977 31.1877 5.00977 31.2323V40C5.00977 40.0446 4.97375 40.0806 4.9292 40.0806H2.34375V31.1517ZM35.0708 76.3232C35.0708 77.0581 34.4727 77.6562 33.7378 77.6562H3.67676C2.94189 77.6562 2.34375 77.0581 2.34375 76.3232V63.717H4.9292C6.26648 63.717 7.35352 62.63 7.35352 61.2927V52.525C7.35352 51.1884 6.26648 50.1007 4.9292 50.1007H2.34375V47.4347H28.7274C29.3744 47.4347 29.8993 46.9098 29.8993 46.2628C29.8993 45.6158 29.3744 45.0909 28.7274 45.0909H2.34375V42.4249H4.9292C6.26648 42.4249 7.35352 41.3373 7.35352 40.0006V31.2329C7.35352 29.8956 6.26648 28.808 4.9292 28.808H2.34375V6.18164C2.34375 4.06555 4.06555 2.34375 6.18164 2.34375H31.2323C33.349 2.34375 35.0702 4.06555 35.0702 6.18164V45.0903H33.7378C33.0908 45.0903 32.5659 45.6152 32.5659 46.2622C32.5659 46.9098 33.0908 47.4341 33.7378 47.4341H35.0702V76.3232H35.0708ZM37.4146 56.3635V12.3639H45.0909V18.7073C45.0909 20.7349 46.7401 22.384 48.7677 22.384H60.1208V35.0708H46.2628C44.2352 35.0708 42.5861 36.72 42.5861 38.7476V56.3635H37.4146ZM76.3232 77.6562H46.2628C45.5273 77.6562 44.9298 77.0581 44.9298 76.3232V47.4347H77.6562V76.3232C77.6562 77.0581 77.0581 77.6562 76.3232 77.6562Z" fill="#4666A6"/>
<path d="M21.212 10.0205H16.2017C14.865 10.0205 13.7773 11.1082 13.7773 12.4448V14.9497C13.7773 16.287 14.865 17.374 16.2017 17.374H21.212C22.5487 17.374 23.6364 16.287 23.6364 14.9497V12.4448C23.6364 11.1082 22.5487 10.0205 21.212 10.0205ZM21.2926 14.9497C21.2926 14.9943 21.2566 15.0303 21.212 15.0303H16.2017C16.1571 15.0303 16.1211 14.9943 16.1211 14.9497V12.4448C16.1211 12.4003 16.1571 12.3643 16.2017 12.3643H21.212C21.2566 12.3643 21.2926 12.4003 21.2926 12.4448V14.9497Z" fill="#4666A6"/>
<path d="M70.0603 42.4238H73.8176C74.4652 42.4238 74.9895 41.8989 74.9895 41.252C74.9895 40.605 74.4652 40.0801 73.8176 40.0801H70.0603C69.4133 40.0801 68.8884 40.605 68.8884 41.252C68.8884 41.8989 69.4133 42.4238 70.0603 42.4238Z" fill="#4666A6"/>
<path d="M61.2926 51.3535C55.1213 51.3535 50.1006 56.3743 50.1006 62.5455C50.1006 68.7168 55.1213 73.7375 61.2926 73.7375C67.4639 73.7375 72.4846 68.7168 72.4846 62.5455C72.4846 56.3743 67.4639 51.3535 61.2926 51.3535ZM61.2926 71.3938C56.4134 71.3938 52.4443 67.4247 52.4443 62.5455C52.4443 57.6664 56.4141 53.6973 61.2926 53.6973C66.1717 53.6973 70.1409 57.667 70.1409 62.5455C70.1409 67.4247 66.1717 71.3938 61.2926 71.3938Z" fill="#4666A6"/>
<path d="M65.8521 60.156C65.2252 60.3177 64.848 60.9562 65.0098 61.583C65.0903 61.8955 65.1312 62.219 65.1312 62.5449C65.1312 64.6616 63.4094 66.3834 61.2927 66.3834C59.1766 66.3834 57.4548 64.6616 57.4548 62.5449C57.4548 60.4288 59.1766 58.707 61.2927 58.707C61.6187 58.707 61.9421 58.7473 62.2534 58.8279C62.8803 58.989 63.5193 58.6118 63.6804 57.985C63.8422 57.3588 63.465 56.7197 62.8381 56.558C62.3358 56.4286 61.8158 56.3633 61.2927 56.3633C57.8839 56.3633 55.1111 59.1361 55.1111 62.5449C55.1111 65.9537 57.8839 68.7272 61.2927 68.7272C64.7015 68.7272 67.475 65.9537 67.475 62.5449C67.475 62.0219 67.4091 61.5012 67.2797 60.9983C67.1179 60.3715 66.4783 59.9949 65.8521 60.156Z" fill="#4666A6"/>
<path d="M51.2725 17.3737H63.7981C64.4451 17.3737 64.97 16.8494 64.97 16.2018V6.18164C64.97 5.53467 64.4451 5.00977 63.7981 5.00977H61.2932C60.6462 5.00977 60.1213 5.53467 60.1213 6.18164C60.1213 6.82922 60.6462 7.35352 61.2932 7.35352H62.6262V15.0299H52.4443V7.35352H56.2828C56.9298 7.35352 57.4547 6.82922 57.4547 6.18164C57.4547 5.53467 56.9298 5.00977 56.2828 5.00977H51.2725C50.6255 5.00977 50.1006 5.53467 50.1006 6.18164V16.2018C50.1006 16.8494 50.6255 17.3737 51.2725 17.3737Z" fill="#4666A6"/>
</g>
<defs>
<clipPath id="clip0_67_6680">
<rect width="80" height="80" fill="white"/>
</clipPath>
</defs>
</svg>
