<svg width="80" height="70" viewBox="0 0 80 70" fill="none" xmlns="http://www.w3.org/2000/svg">
<path d="M44.6875 13.125C45.5504 13.125 46.25 12.4254 46.25 11.5625C46.25 10.6996 45.5504 10 44.6875 10C43.8246 10 43.125 10.6996 43.125 11.5625C43.125 12.4254 43.8246 13.125 44.6875 13.125Z" fill="#4666A6"/>
<path d="M35.3125 13.125C36.1754 13.125 36.875 12.4254 36.875 11.5625C36.875 10.6996 36.1754 10 35.3125 10C34.4496 10 33.75 10.6996 33.75 11.5625C33.75 12.4254 34.4496 13.125 35.3125 13.125Z" fill="#4666A6"/>
<path d="M47.9688 40.9375C48.6591 40.4199 48.7989 39.4403 48.2812 38.75C47.7636 38.0597 46.7842 37.9199 46.0938 38.4375C43.4623 40.4111 41.9531 43.4296 41.9531 46.7188C41.9531 50.008 43.4623 53.0264 46.0938 55C47.9308 56.3779 48.9844 58.485 48.9844 60.7813C48.9844 63.0775 47.9308 65.1847 46.0938 66.5625C45.4034 67.0802 45.2636 68.0597 45.7812 68.75C46.2964 69.4369 47.2752 69.5827 47.9688 69.0625C50.6002 67.089 52.1094 64.0705 52.1094 60.7813C52.1094 57.4921 50.6002 54.4736 47.9688 52.5C46.1317 51.1222 45.0781 49.015 45.0781 46.7188C45.0781 44.4225 46.1317 42.3153 47.9688 40.9375Z" fill="#4666A6"/>
<path d="M62.0312 40.9375C62.7216 40.4199 62.8614 39.4403 62.3438 38.75C61.8259 38.0597 60.8467 37.9199 60.1562 38.4375C57.5248 40.4111 56.0156 43.4296 56.0156 46.7188C56.0156 50.008 57.5248 53.0264 60.1562 55C61.9933 56.3779 63.0469 58.485 63.0469 60.7813C63.0469 63.0775 61.9933 65.1847 60.1562 66.5625C59.4659 67.0802 59.3261 68.0597 59.8438 68.75C60.3589 69.4369 61.3377 69.5827 62.0312 69.0625C64.6627 67.089 66.1719 64.0705 66.1719 60.7813C66.1719 57.4921 64.6627 54.4736 62.0312 52.5C60.1942 51.1222 59.1406 49.015 59.1406 46.7188C59.1406 44.4225 60.1942 42.3153 62.0312 40.9375Z" fill="#4666A6"/>
<path d="M33.9062 40.9376C34.5966 40.4199 34.7364 39.4404 34.2188 38.7501C33.7011 38.0598 32.7217 37.9198 32.0312 38.4376C29.3998 40.4112 27.8906 43.4296 27.8906 46.7189C27.8906 50.0081 29.3998 53.0265 32.0312 55.0001C33.8683 56.3779 34.9219 58.4851 34.9219 60.7814C34.9219 63.0776 33.8683 65.1848 32.0312 66.5626C31.3409 67.0803 31.2011 68.0598 31.7188 68.7501C32.2339 69.437 33.2127 69.5828 33.9062 69.0626C36.5377 67.089 38.0469 64.0706 38.0469 60.7814C38.0469 57.4921 36.5377 54.4737 33.9062 52.5001C32.0692 51.1223 31.0156 49.0151 31.0156 46.7189C31.0156 44.4226 32.0692 42.3154 33.9062 40.9376Z" fill="#4666A6"/>
<path d="M19.8438 40.9376C20.5341 40.4199 20.6739 39.4404 20.1562 38.7501C19.6384 38.0598 18.6592 37.9198 17.9688 38.4376C15.3373 40.4112 13.8281 43.4296 13.8281 46.7189C13.8281 50.0081 15.3373 53.0265 17.9688 55.0001C19.8058 56.3779 20.8594 58.4851 20.8594 60.7814C20.8594 63.0776 19.8058 65.1848 17.9688 66.5626C17.2784 67.0803 17.1386 68.0598 17.6562 68.7501C18.1714 69.437 19.1502 69.5828 19.8438 69.0626C22.4752 67.089 23.9844 64.0706 23.9844 60.7814C23.9844 57.4921 22.4752 54.4737 19.8438 52.5001C18.0067 51.1223 16.9531 49.0151 16.9531 46.7189C16.9531 44.4226 18.0067 42.3154 19.8438 40.9376Z" fill="#4666A6"/>
<path d="M40 31.875C40.8629 31.875 41.5625 31.1754 41.5625 30.3125C41.5625 29.4496 40.8629 28.75 40 28.75C39.1371 28.75 38.4375 29.4496 38.4375 30.3125C38.4375 31.1754 39.1371 31.875 40 31.875Z" fill="#4666A6"/>
<path d="M73.75 0.625H6.25C2.80375 0.625 0 3.42875 0 6.875V30.3125C0 31.1755 0.699531 31.875 1.5625 31.875H32.9688C33.8317 31.875 34.5312 31.1755 34.5312 30.3125C34.5312 29.4495 33.8317 28.75 32.9688 28.75H12.5V22.5H67.5V28.75H47.0312C46.1684 28.75 45.4688 29.4495 45.4688 30.3125C45.4688 31.1755 46.1684 31.875 47.0312 31.875H78.4375C79.3003 31.875 80 31.1755 80 30.3125V6.875C80 3.42875 77.1963 0.625 73.75 0.625ZM76.875 28.75H70.625V20.9375C70.625 20.0745 69.9253 19.375 69.0625 19.375H10.9375C10.0745 19.375 9.375 20.0745 9.375 20.9375V28.75H3.125V6.875C3.125 5.15188 4.52688 3.75 6.25 3.75H73.75C75.4731 3.75 76.875 5.15188 76.875 6.875V28.75Z" fill="#4666A6"/>
</svg>
