<svg width="80" height="80" viewBox="0 0 80 80" fill="none" xmlns="http://www.w3.org/2000/svg">
<path d="M78.75 65C78.75 63.3725 77.7012 61.9975 76.25 61.48V56.25C76.25 51.16 72.425 46.955 67.5 46.3363V32.5C67.5 27.675 63.5737 23.75 58.75 23.75H48.7113C48.2963 11.2762 38.0475 1.25 25.475 1.25H24.525C11.6913 1.25 1.25 11.6913 1.25 24.5263C1.25 29.96 3.165 35.2525 6.64375 39.4263L10.8375 44.4588C12.4488 46.3913 13.4325 48.7688 13.6812 51.2563C11.6462 51.2938 10 52.955 10 55C10 57.0675 11.6825 58.75 13.75 58.75V60C13.75 65.3425 17.4975 69.8187 22.5 70.96V72.5C22.5 75.9463 25.3037 78.75 28.75 78.75H40C43.4463 78.75 46.25 75.9463 46.25 72.5V34.9712C47.6125 32.2575 48.4462 29.2975 48.6737 26.25H58.75C62.1963 26.25 65 29.0537 65 32.5V46.3363C60.075 46.955 56.25 51.16 56.25 56.25V61.48C54.7988 61.9975 53.75 63.3725 53.75 65C53.75 66.6275 54.7988 68.0025 56.25 68.52V75C56.25 77.0675 57.9325 78.75 60 78.75C62.0675 78.75 63.75 77.0675 63.75 75V68.75H68.75V75C68.75 77.0675 70.4325 78.75 72.5 78.75C74.5675 78.75 76.25 77.0675 76.25 75V68.52C77.7012 68.0025 78.75 66.6275 78.75 65ZM8.75 38.0475V21.25H21.25V33.75H13.75V44.2113C13.4438 43.7463 13.12 43.29 12.76 42.8587L8.75 38.0475ZM18.75 18.75H11.25V16.25H18.75V18.75ZM41.25 21.25V38.0475L37.24 42.8587C36.88 43.29 36.5563 43.745 36.25 44.2113V33.75H28.75V21.25H41.25ZM33.75 36.25V51.25H16.25V36.25H33.75ZM12.5 55C12.5 54.3112 13.06 53.75 13.75 53.75H36.25C36.94 53.75 37.5 54.3112 37.5 55C37.5 55.6888 36.94 56.25 36.25 56.25H13.75C13.06 56.25 12.5 55.6888 12.5 55ZM16.25 60V58.75H33.75V60C33.75 64.825 29.8237 68.75 25 68.75C20.1763 68.75 16.25 64.825 16.25 60ZM43.75 72.5C43.75 74.5675 42.0675 76.25 40 76.25H28.75C26.6825 76.25 25 74.5675 25 72.5V71.25C31.2038 71.25 36.25 66.2025 36.25 60V58.75C38.3175 58.75 40 57.0675 40 55C40 52.955 38.3538 51.2938 36.3175 51.2563C36.5662 48.7688 37.5513 46.3913 39.1613 44.4588L43.355 39.4263C43.4937 39.2588 43.615 39.0788 43.7487 38.9088V72.5H43.75ZM43.75 34.3675V18.75H41.25V13.75H38.75V18.75H36.25V11.25H33.75V18.75H31.25V13.75H28.75V18.75H26.25V33.75H23.75V18.75H21.25V13.75H8.75V18.75H6.25V34.3675C4.63125 31.3575 3.75 27.9775 3.75 24.525C3.75 13.07 13.07 3.75 24.525 3.75H25.475C36.93 3.75 46.25 13.07 46.25 24.5263C46.25 27.9775 45.3688 31.3587 43.75 34.3675ZM66.25 48.75C70.3863 48.75 73.75 52.1138 73.75 56.25V61.25H58.75V56.25C58.75 52.1138 62.1138 48.75 66.25 48.75ZM61.25 75C61.25 75.6888 60.69 76.25 60 76.25C59.31 76.25 58.75 75.6888 58.75 75V68.75H61.25V75ZM72.5 76.25C71.81 76.25 71.25 75.6888 71.25 75V68.75H73.75V75C73.75 75.6888 73.19 76.25 72.5 76.25ZM75 66.25H57.5C56.81 66.25 56.25 65.6888 56.25 65C56.25 64.3112 56.81 63.75 57.5 63.75H75C75.69 63.75 76.25 64.3112 76.25 65C76.25 65.6888 75.69 66.25 75 66.25Z" fill="#4666A6"/>
<path d="M31.25 23.75H33.75V26.25H31.25V23.75Z" fill="#4666A6"/>
<path d="M36.25 23.75H38.75V26.25H36.25V23.75Z" fill="#4666A6"/>
<path d="M36.25 28.75H38.75V31.25H36.25V28.75Z" fill="#4666A6"/>
<path d="M31.25 28.75H33.75V31.25H31.25V28.75Z" fill="#4666A6"/>
<path d="M11.25 23.75H13.75V26.25H11.25V23.75Z" fill="#4666A6"/>
<path d="M16.25 23.75H18.75V26.25H16.25V23.75Z" fill="#4666A6"/>
<path d="M11.25 28.75H13.75V31.25H11.25V28.75Z" fill="#4666A6"/>
<path d="M16.25 28.75H18.75V31.25H16.25V28.75Z" fill="#4666A6"/>
<path d="M23.75 38.75H26.25V41.25H23.75V38.75Z" fill="#4666A6"/>
<path d="M23.75 43.75H26.25V46.25H23.75V43.75Z" fill="#4666A6"/>
<path d="M18.75 43.75H21.25V46.25H18.75V43.75Z" fill="#4666A6"/>
<path d="M18.75 38.75H21.25V41.25H18.75V38.75Z" fill="#4666A6"/>
<path d="M28.75 43.75H31.25V46.25H28.75V43.75Z" fill="#4666A6"/>
<path d="M28.75 38.75H31.25V41.25H28.75V38.75Z" fill="#4666A6"/>
</svg>
