<svg width="80" height="80" viewBox="0 0 80 80" fill="none" xmlns="http://www.w3.org/2000/svg">
<g clip-path="url(#clip0_7_218)">
<path d="M58.1449 7.47054C53.2885 2.64835 46.8588 -0.000244141 40.0194 -0.000244141C39.9575 -0.000244141 39.8943 -8.78907e-05 39.8324 0.000380859C33.1552 0.0474121 26.8332 2.66351 22.0307 7.36679C17.2272 12.071 14.4818 18.3373 14.3004 25.0108C14.1111 31.9654 16.6585 38.5521 21.4732 43.5579C25.2646 47.4998 27.3525 52.7427 27.3525 58.3213V69.0529C27.3525 71.2577 28.8833 73.1107 30.9374 73.6077V75.0387C30.9374 77.7741 33.1629 79.9996 35.8983 79.9996H44.1015C46.8369 79.9996 49.0624 77.7741 49.0624 75.0387V73.616C51.1344 73.1318 52.6829 71.2704 52.6829 69.0529V58.3216C52.6829 52.816 54.8282 47.5124 58.724 43.388C63.2515 38.5948 65.7449 32.3226 65.7449 25.7268C65.7449 18.8205 63.0458 12.3369 58.1449 7.47054ZM45.9375 75.0388C45.9375 76.0512 45.114 76.8748 44.1016 76.8748H35.8985C34.8861 76.8748 34.0625 76.0512 34.0625 75.0388V73.7399H45.9375V75.0388ZM49.558 69.0529C49.558 69.9141 48.8574 70.6149 47.996 70.6149H47.5H32.5H32.0397C31.1783 70.6149 30.4777 69.9141 30.4777 69.0529V60.1662H49.558V69.0529ZM37.5633 57.0412V37.2776H42.4311V57.041H37.5633V57.0412ZM56.4524 41.2421C52.3083 45.6296 49.8996 51.1974 49.5918 57.041H45.5561V37.2776H46.9605C49.458 37.2776 51.4901 35.2457 51.4901 32.748V32.5058C51.4901 30.0082 49.458 27.9763 46.9605 27.9763C44.463 27.9763 42.4311 30.0082 42.4311 32.5058V34.1526H37.5633V32.5058C37.5633 30.0082 35.5315 27.9763 33.034 27.9763H32.7261C30.2286 27.9763 28.1968 30.0082 28.1968 32.5058V32.748C28.1968 35.2455 30.2286 37.2776 32.7261 37.2776H34.4383V57.041H30.4455C30.1472 51.1312 27.7877 45.6148 23.7255 41.3915C19.4958 36.994 17.2579 31.2066 17.4243 25.0958C17.7515 13.0662 27.8135 3.21022 39.8544 3.12522C45.9316 3.08257 51.6379 5.41319 55.9432 9.68804C60.249 13.9633 62.6201 19.6594 62.6201 25.7268C62.6201 31.5215 60.4296 37.0315 56.4524 41.2421ZM45.5561 34.1526V32.5058C45.5561 31.7313 46.1861 31.1013 46.9605 31.1013C47.7351 31.1013 48.3651 31.7315 48.3651 32.5058V32.748C48.3651 33.5226 47.7351 34.1526 46.9605 34.1526H45.5561ZM34.4382 32.5058V34.1526H32.726C31.9516 34.1526 31.3216 33.5226 31.3216 32.748V32.5058C31.3216 31.7313 31.9516 31.1013 32.726 31.1013H33.0338C33.8082 31.1013 34.4382 31.7316 34.4382 32.5058Z" fill="#4666A6"/>
<path d="M56.7667 18.9632C55.4245 15.631 53.1417 12.7952 50.1653 10.7624C47.1144 8.67881 43.5381 7.59131 39.8324 7.6174C38.9694 7.6235 38.2747 8.32803 38.2808 9.19099C38.2869 10.0502 38.9853 10.7424 39.843 10.7424C39.8467 10.7424 39.8506 10.7424 39.8542 10.7424C39.891 10.7422 39.9267 10.7421 39.9633 10.7421C46.1163 10.7421 51.5667 14.4179 53.8683 20.1308C54.1136 20.7399 54.6994 21.1099 55.318 21.1099C55.5124 21.1099 55.7102 21.0735 55.9014 20.9963C56.7017 20.6738 57.0894 19.7635 56.7667 18.9632Z" fill="#4666A6"/>
<path d="M57.6157 24.6216C57.325 24.331 56.9219 24.1638 56.511 24.1638C56.1 24.1638 55.6969 24.331 55.4063 24.6216C55.1141 24.9123 54.9485 25.3154 54.9485 25.7263C54.9485 26.1388 55.1141 26.5404 55.4063 26.831C55.6969 27.1232 56.0985 27.2888 56.511 27.2888C56.9219 27.2888 57.325 27.1232 57.6157 26.831C57.9061 26.5404 58.0735 26.1388 58.0735 25.7263C58.0735 25.3154 57.9063 24.9123 57.6157 24.6216Z" fill="#4666A6"/>
<path d="M72.5673 7.78232C71.957 7.17217 70.9679 7.17217 70.3575 7.78232L67.4464 10.6934C66.8362 11.3036 66.8362 12.2929 67.4464 12.9033C67.7515 13.2084 68.1514 13.3609 68.5514 13.3609C68.9514 13.3609 69.3511 13.2084 69.6562 12.9033L72.5673 9.99217C73.1775 9.38201 73.1775 8.39264 72.5673 7.78232Z" fill="#4666A6"/>
<path d="M72.5672 41.462L69.6562 38.5509C69.0461 37.9407 68.057 37.9407 67.4464 38.5509C66.8362 39.161 66.8362 40.1504 67.4464 40.7606L70.3575 43.6716C70.6626 43.9768 71.0625 44.1293 71.4623 44.1293C71.8622 44.1293 72.262 43.9766 72.5672 43.6716C73.1773 43.0615 73.1773 42.0721 72.5672 41.462Z" fill="#4666A6"/>
<path d="M78.4376 24.1646H74.3206C73.4577 24.1646 72.7581 24.8641 72.7581 25.7271C72.7581 26.59 73.4577 27.2896 74.3206 27.2896H78.4376C79.3004 27.2896 80.0001 26.59 80.0001 25.7271C80.0001 24.8641 79.3004 24.1646 78.4376 24.1646Z" fill="#4666A6"/>
<path d="M12.5535 10.6937L9.64256 7.78257C9.03225 7.17241 8.04318 7.17241 7.43271 7.78257C6.82256 8.39273 6.82256 9.3821 7.43271 9.99241L10.3438 12.9035C10.649 13.2087 11.0488 13.3612 11.4487 13.3612C11.8485 13.3612 12.2483 13.2087 12.5535 12.9035C13.1637 12.2932 13.1637 11.304 12.5535 10.6937Z" fill="#4666A6"/>
<path d="M12.5535 38.5508C11.9433 37.9404 10.9541 37.9404 10.3438 38.5508L7.43271 41.462C6.82256 42.0722 6.82256 43.0615 7.43271 43.6717C7.73787 43.9769 8.13771 44.1294 8.53756 44.1294C8.9374 44.1294 9.33725 43.9767 9.6424 43.6717L12.5535 40.7606C13.1637 40.1503 13.1637 39.1611 12.5535 38.5508Z" fill="#4666A6"/>
<path d="M5.67953 24.1646H1.5625C0.699688 24.1646 0 24.8641 0 25.7271C0 26.59 0.699688 27.2896 1.5625 27.2896H5.67953C6.54234 27.2896 7.24203 26.59 7.24203 25.7271C7.24203 24.8641 6.54234 24.1646 5.67953 24.1646Z" fill="#4666A6"/>
</g>
<defs>
<clipPath id="clip0_7_218">
<rect width="80" height="80" fill="white" transform="translate(0 -0.000244141)"/>
</clipPath>
</defs>
</svg>
