<svg width="50" height="51" viewBox="0 0 50 51" fill="none" xmlns="http://www.w3.org/2000/svg">
<path d="M30.8678 10.822C34.4568 10.822 37.3663 13.8913 37.3663 17.6775V43.3855C37.3663 47.1717 34.4568 50.241 30.8678 50.241H6.49849C2.90947 50.241 0 47.1717 0 43.3855V17.6775C0 13.8913 2.90947 10.822 6.49849 10.822H30.8678ZM30.8678 13.5642H6.49849C4.36661 13.5642 2.63435 15.3691 2.59992 17.6095L2.5994 17.6775V43.3855C2.5994 45.6345 4.31034 47.4619 6.43401 47.4983L6.49849 47.4988H30.8678C32.9997 47.4988 34.732 45.6939 34.7664 43.4536L34.7669 43.3855V17.6775C34.7669 15.4285 33.056 13.6011 30.9323 13.5648L30.8678 13.5642Z" fill="#F2F2F2"/>
<path d="M46.7695 12.7457C47.3156 13.3218 47.5885 14.0771 47.5881 14.8327C47.5877 15.5738 47.3243 16.3152 46.7979 16.8874L46.7678 16.9197L37.7449 26.4383C37.1984 27.0148 36.4824 27.3032 35.7665 27.3036C35.0636 27.304 34.3609 27.0267 33.8188 26.4717L33.7882 26.44L24.8769 17.0391C24.3308 16.463 24.0579 15.7077 24.0583 14.9522C24.0586 14.211 24.322 13.4696 24.8484 12.8974L24.8785 12.8652L33.9015 3.34651C34.448 2.77002 35.164 2.48159 35.8798 2.48119C36.5827 2.4808 37.2855 2.75811 37.8276 3.31308L37.8581 3.34479L46.7695 12.7457ZM43.6923 14.8318L35.8806 6.59098L27.954 14.953L35.7657 23.1939L43.6923 14.8318Z" fill="#0038A8"/>
<path fill-rule="evenodd" clip-rule="evenodd" d="M38.2867 2.88921L47.1974 12.2936C47.8623 12.9953 48.1947 13.9166 48.1942 14.8358C48.1938 15.7375 47.8731 16.6414 47.2323 17.3383L47.2307 17.3401L47.1974 17.3757L38.1751 26.8979C37.5101 27.5997 36.6374 27.9512 35.7669 27.9516C34.9121 27.9521 34.0554 27.6143 33.3951 26.9381L33.3935 26.9364L33.3597 26.9013L24.449 17.4969C23.784 16.7952 23.4517 15.8739 23.4521 14.9547C23.4526 14.053 23.7733 13.1491 24.4141 12.4522L24.4157 12.4504L24.449 12.4148L33.4713 2.89263C34.1363 2.19078 35.0089 1.83936 35.8795 1.83887C36.7343 1.8384 37.591 2.17622 38.2513 2.85242L38.2529 2.8541L38.2867 2.88921ZM37.4285 3.80171L37.4014 3.77348C36.9779 3.34058 36.4302 3.12421 35.8801 3.12452C35.3194 3.12483 34.7603 3.35038 34.3327 3.80172L25.312 13.3222L25.2883 13.3475C25.2878 13.3481 25.2873 13.3486 25.2868 13.3491C24.876 13.7967 24.6706 14.3751 24.6703 14.9554C24.67 15.5475 24.8833 16.1371 25.3103 16.5878L34.2195 25.9905L34.2434 26.0155C34.2439 26.016 34.2444 26.0165 34.2449 26.017C34.6684 26.4499 35.2162 26.6663 35.7662 26.666C36.327 26.6657 36.8861 26.4401 37.3137 25.9888L46.3344 16.4683L46.3581 16.443C46.3586 16.4425 46.359 16.4419 46.3595 16.4414C46.7703 15.9938 46.9758 15.4154 46.9761 14.8352C46.9764 14.2431 46.7631 13.6534 46.336 13.2027L37.4285 3.80171ZM35.8806 5.68317L44.5517 14.8347L35.7658 24.1073L27.0947 14.9559L35.8806 5.68317ZM35.8806 7.50134L28.8174 14.9559L35.7658 22.2892L42.829 14.8347L35.8806 7.50134Z" fill="white"/>
</svg>
