<svg width="80" height="80" viewBox="0 0 80 80" fill="none" xmlns="http://www.w3.org/2000/svg">
<path d="M73.3333 46.6667C77.0093 46.6667 80 43.676 80 40C80 36.324 77.0093 33.3333 73.3333 33.3333C71.9773 33.3333 70.7173 33.7453 69.6627 34.444L58.552 23.3333L69.6627 12.2227C70.7173 12.9213 71.9773 13.3333 73.3333 13.3333C77.0093 13.3333 80 10.3427 80 6.66667C80 2.99067 77.0093 0 73.3333 0C69.6573 0 66.6667 2.99067 66.6667 6.66667C66.6667 8.02267 67.0787 9.28267 67.7773 10.3373L56.6667 21.448L45.556 10.3373C46.2547 9.28267 46.6667 8.02267 46.6667 6.66667C46.6667 2.99067 43.676 0 40 0C36.324 0 33.3333 2.99067 33.3333 6.66667C33.3333 8.02267 33.7453 9.28267 34.444 10.3373L23.3333 21.448L12.2227 10.3373C12.9213 9.28267 13.3333 8.02267 13.3333 6.66667C13.3333 2.99067 10.3427 0 6.66667 0C2.99067 0 0 2.99067 0 6.66667C0 10.3427 2.99067 13.3333 6.66667 13.3333C6.83067 13.3333 6.984 13.2973 7.144 13.2853L15.1347 29.6467L10.3373 34.444C9.28267 33.7453 8.02267 33.3333 6.66667 33.3333C2.99067 33.3333 0 36.324 0 40C0 43.676 2.99067 46.6667 6.66667 46.6667C9.88533 46.6667 12.5787 44.372 13.1987 41.3333H20.8427L26.0733 52.0427L10.3373 67.7773C9.28267 67.0787 8.02267 66.6667 6.66667 66.6667C2.99067 66.6667 0 69.6573 0 73.3333C0 77.0093 2.99067 80 6.66667 80C10.3427 80 13.3333 77.0093 13.3333 73.3333C13.3333 73.1693 13.2973 73.016 13.2853 72.856L31.8173 63.8053L34.5853 69.4733C33.804 70.5653 33.3333 71.892 33.3333 73.3333C33.3333 77.0093 36.324 80 40 80C43.676 80 46.6667 77.0093 46.6667 73.3333C46.6667 70.1147 44.372 67.4213 41.3333 66.8013V59.1573L52.0427 53.9267L67.7773 69.6613C67.0787 70.7173 66.6667 71.9773 66.6667 73.3333C66.6667 77.0093 69.6573 80 73.3333 80C77.0093 80 80 77.0093 80 73.3333C80 69.6573 77.0093 66.6667 73.3333 66.6667C72.732 66.6667 72.1613 66.772 71.6067 66.9213L62.2013 48.9653L69.4733 45.4133C70.5653 46.196 71.892 46.6667 73.3333 46.6667ZM73.3333 2.66667C75.5387 2.66667 77.3333 4.46133 77.3333 6.66667C77.3333 8.872 75.5387 10.6667 73.3333 10.6667C71.128 10.6667 69.3333 8.872 69.3333 6.66667C69.3333 4.46133 71.128 2.66667 73.3333 2.66667ZM6.66667 44C4.46133 44 2.66667 42.2053 2.66667 40C2.66667 37.7947 4.46133 36 6.66667 36C8.872 36 10.6667 37.7947 10.6667 40C10.6667 42.2053 8.872 44 6.66667 44ZM6.66667 77.3333C4.46133 77.3333 2.66667 75.5387 2.66667 73.3333C2.66667 71.128 4.46133 69.3333 6.66667 69.3333C8.872 69.3333 10.6667 71.128 10.6667 73.3333C10.6667 75.5387 8.872 77.3333 6.66667 77.3333ZM73.3333 69.3333C75.5387 69.3333 77.3333 71.128 77.3333 73.3333C77.3333 75.5387 75.5387 77.3333 73.3333 77.3333C71.128 77.3333 69.3333 75.5387 69.3333 73.3333C69.3333 71.128 71.128 69.3333 73.3333 69.3333ZM54.7813 23.3333L50.84 27.2747L43.1133 12.5253C43.3 12.4253 43.4947 12.3387 43.6707 12.2227L54.7813 23.3333ZM50.16 31.7253L53.796 38.6667H43.2187L50.16 31.7253ZM41.3333 36.7813V14.8733L48.864 29.2507L41.3333 36.7813ZM36.3293 12.2227C37.028 12.6867 37.8173 13.0253 38.6667 13.1987V36.7813L25.2187 23.3333L36.3293 12.2227ZM6.66667 10.6667C4.46133 10.6667 2.66667 8.872 2.66667 6.66667C2.66667 4.46133 4.46133 2.66667 6.66667 2.66667C8.872 2.66667 10.6667 4.46133 10.6667 6.66667C10.6667 8.872 8.872 10.6667 6.66667 10.6667ZM9.748 12.5427C9.94533 12.4387 10.1507 12.3453 10.3373 12.2227L21.448 23.3333L17.128 27.6533L9.748 12.5427ZM13.1987 38.6667C13.0253 37.8173 12.6867 37.028 12.2227 36.3293L16.372 32.18L19.54 38.6667H13.1987ZM18.3653 30.1867L23.3333 25.2187L36.7813 38.6667H22.5067L18.3653 30.1867ZM23.8093 41.3333H36.7813L28.0653 50.0493L23.8093 41.3333ZM12.5427 70.252C12.4387 70.0547 12.3453 69.8493 12.2227 69.6627L27.3093 54.576L30.6467 61.4093L12.5427 70.252ZM29.3027 52.5827L38.6667 43.2187V57.4933L33.0427 60.24L29.3027 52.5827ZM34.2133 62.636L38.6667 60.46V66.8013C37.936 66.9507 37.264 67.2413 36.6413 67.608L34.2133 62.636ZM44 73.3333C44 75.5387 42.2053 77.3333 40 77.3333C37.7947 77.3333 36 75.5387 36 73.3333C36 71.128 37.7947 69.3333 40 69.3333C42.2053 69.3333 44 71.128 44 73.3333ZM40 10.6667C37.7947 10.6667 36 8.872 36 6.66667C36 4.46133 37.7947 2.66667 40 2.66667C42.2053 2.66667 44 4.46133 44 6.66667C44 8.872 42.2053 10.6667 40 10.6667ZM41.3333 56.1907V43.2187L50.0493 51.9347L41.3333 56.1907ZM43.2187 41.3333H55.1933L58.5667 47.7747L52.5813 50.6973L43.2187 41.3333ZM68.3653 66.48L54.576 52.6907L59.8053 50.1373L68.3653 66.48ZM60.9653 46.604L58.204 41.3333H66.8027C66.952 42.064 67.2427 42.736 67.6093 43.3587L60.9653 46.604ZM66.8013 38.6667H56.8067L52.136 29.7493L56.6667 25.2187L67.7773 36.3293C67.3133 37.028 66.9747 37.8173 66.8013 38.6667ZM73.3333 36C75.5387 36 77.3333 37.7947 77.3333 40C77.3333 42.2053 75.5387 44 73.3333 44C71.128 44 69.3333 42.2053 69.3333 40C69.3333 37.7947 71.128 36 73.3333 36Z" fill="#4666A6"/>
</svg>
