<svg width="80" height="80" viewBox="0 0 80 80" fill="none" xmlns="http://www.w3.org/2000/svg">
<g clip-path="url(#clip0_67_6691)">
<path d="M71.6667 80H8.33333C3.74 80 0 76.26 0 71.6667V8.33333C0 3.74 3.74 0 8.33333 0H71.6667C76.26 0 80 3.74 80 8.33333V71.6667C80 76.26 76.26 80 71.6667 80ZM8.33333 3.33333C5.57667 3.33333 3.33333 5.57667 3.33333 8.33333V71.6667C3.33333 74.4233 5.57667 76.6667 8.33333 76.6667H71.6667C74.4233 76.6667 76.6667 74.4233 76.6667 71.6667V8.33333C76.6667 5.57667 74.4233 3.33333 71.6667 3.33333H8.33333Z" fill="#4666A6"/>
<path d="M35 66.6673H11.6667C10.7467 66.6673 10 65.9207 10 65.0007V15.0007C10 14.0807 10.7467 13.334 11.6667 13.334H35C35.92 13.334 36.6667 14.0807 36.6667 15.0007V65.0007C36.6667 65.9207 35.92 66.6673 35 66.6673ZM13.3333 63.334H33.3333V16.6673H13.3333V63.334Z" fill="#4666A6"/>
<path d="M68.3335 66.6673H45.0002C44.0802 66.6673 43.3335 65.9207 43.3335 65.0007V15.0007C43.3335 14.0807 44.0802 13.334 45.0002 13.334H68.3335C69.2535 13.334 70.0002 14.0807 70.0002 15.0007V65.0007C70.0002 65.9207 69.2535 66.6673 68.3335 66.6673ZM46.6668 63.334H66.6668V16.6673H46.6668V63.334Z" fill="#4666A6"/>
<path d="M28.3332 59.9993H18.3332C17.4132 59.9993 16.6665 59.2527 16.6665 58.3327C16.6665 57.4127 17.4132 56.666 18.3332 56.666H28.3332C29.2532 56.666 29.9998 57.4127 29.9998 58.3327C29.9998 59.2527 29.2532 59.9993 28.3332 59.9993Z" fill="#4666A6"/>
<path d="M61.6667 23.9993H51.6667C50.7467 23.9993 50 23.2527 50 22.3327C50 21.4127 50.7467 20.666 51.6667 20.666H61.6667C62.5867 20.666 63.3333 21.4127 63.3333 22.3327C63.3333 23.2527 62.5867 23.9993 61.6667 23.9993Z" fill="#4666A6"/>
</g>
<defs>
<clipPath id="clip0_67_6691">
<rect width="80" height="80" fill="white"/>
</clipPath>
</defs>
</svg>
