<svg width="69" height="80" viewBox="0 0 69 80" fill="none" xmlns="http://www.w3.org/2000/svg">
<path d="M66.9864 13.8142C55.9794 10.7983 44.9077 6.10221 34.9682 0.233789C34.4403 -0.0779295 33.7851 -0.0779295 33.2573 0.233789C23.0311 6.27081 12.5576 10.7128 1.23812 13.8142C0.506874 14.0144 0 14.6791 0 15.4374V32.632C0 50.3387 8.16858 62.0593 15.0214 68.7735C22.3989 76.0024 30.9926 80 34.1128 80C37.2326 80 45.8263 76.0024 53.2038 68.7735C60.0565 62.0595 68.2246 50.3388 68.2246 32.632V15.4372C68.2246 14.6791 67.7177 14.0144 66.9864 13.8142ZM64.8589 32.6319C64.8589 49.1698 57.2401 60.1065 50.8482 66.3693C43.5934 73.4779 35.8367 76.6341 34.1128 76.6341C32.3888 76.6341 24.6317 73.4779 17.3767 66.3693C10.985 60.1063 3.36578 49.1698 3.36578 32.6319V16.7147C14.1904 13.6413 24.2714 9.35205 34.1131 3.63284C43.709 9.20033 54.2929 13.7028 64.8589 16.7141V32.6319Z" fill="#4666A6"/>
<path d="M19.1965 16.5265C18.8559 15.6617 17.8789 15.2368 17.0139 15.5776C14.0076 16.7621 10.922 17.8524 7.84279 18.8184C7.14107 19.0387 6.66357 19.6887 6.66357 20.424V26.9226C6.66357 27.8519 7.41717 28.6054 8.34638 28.6054C9.2756 28.6054 10.0292 27.8519 10.0292 26.9226V21.6538C12.7915 20.7601 15.5509 19.7715 18.2476 18.7088C19.1125 18.3684 19.5373 17.3913 19.1965 16.5265Z" fill="#4666A6"/>
<path d="M22.3932 16.8458C22.619 16.8458 22.8482 16.8004 23.068 16.7044L23.099 16.691C23.9504 16.3179 24.3338 15.3268 23.9607 14.4757C23.5872 13.6243 22.5905 13.2391 21.7401 13.6119L21.7129 13.6237C20.861 13.9957 20.4763 14.986 20.8484 15.8375C21.1244 16.4697 21.744 16.8458 22.3932 16.8458Z" fill="#4666A6"/>
<path d="M54.1624 54.263C53.3848 53.7547 52.342 53.9733 51.8331 54.7512C50.4464 56.8737 48.8195 58.9062 46.997 60.7917C45.4982 62.342 43.8742 63.787 42.17 65.0862C41.431 65.6497 41.2889 66.7056 41.8521 67.4448C42.1835 67.879 42.6846 68.1075 43.1915 68.1075C43.5475 68.1075 43.906 67.9951 44.2107 67.7626C46.049 66.3609 47.8006 64.8026 49.4165 63.1311C51.387 61.093 53.1479 58.893 54.6507 56.5922C55.1593 55.8141 54.9404 54.7712 54.1624 54.263Z" fill="#4666A6"/>
<path d="M38.2621 67.7254L38.1655 67.7823C37.3613 68.2481 37.0865 69.2774 37.5521 70.0817C37.8641 70.6207 38.4289 70.9217 39.01 70.9217C39.296 70.9217 39.5863 70.8487 39.8514 70.6948L39.9628 70.6293C40.7649 70.1596 41.0342 69.1289 40.5645 68.3268C40.0945 67.5251 39.0636 67.2562 38.2621 67.7254Z" fill="#4666A6"/>
<path d="M22.6419 36.5656C21.6086 35.5322 20.2344 34.9634 18.7729 34.9634C17.3113 34.9634 15.9369 35.5323 14.9032 36.5656C12.7699 38.6993 12.7699 42.1712 14.9032 44.3048L24.84 54.2413C25.8735 55.2745 27.2477 55.8434 28.7094 55.8434C30.1711 55.8434 31.5453 55.2745 32.5789 54.241L53.3228 33.497C55.4559 31.3628 55.4559 27.8914 53.3225 25.7584C52.2891 24.725 50.9148 24.1562 49.453 24.1562C47.9912 24.1562 46.617 24.7252 45.5834 25.7584L28.7092 42.6326L22.6419 36.5656ZM47.9634 28.1384C48.3611 27.7408 48.8903 27.5219 49.4531 27.5219C50.0162 27.5219 50.545 27.7408 50.943 28.1384C51.764 28.9595 51.764 30.2961 50.9426 31.1175L30.1991 51.8612C29.8014 52.2589 29.2722 52.4778 28.7094 52.4778C28.1466 52.4778 27.6174 52.2589 27.2196 51.8612L17.283 41.925C16.4616 41.1036 16.4616 39.767 17.2827 38.9459C17.6805 38.5483 18.2097 38.329 18.7727 38.329C19.3357 38.329 19.8646 38.5479 20.2622 38.9456L27.5192 46.2028C27.835 46.5182 28.2628 46.6956 28.7092 46.6956C29.1557 46.6956 29.5835 46.5184 29.8989 46.2028L47.9634 28.1384Z" fill="#4666A6"/>
</svg>
