<svg width="80" height="80" viewBox="0 0 80 80" fill="none" xmlns="http://www.w3.org/2000/svg">
<path d="M68.0216 14.9404C67.2449 14.9426 66.4852 14.7142 65.8384 14.2843C65.1916 13.8544 64.6869 13.2423 64.3883 12.5254C64.0896 11.8085 64.0103 11.0191 64.1605 10.2572C64.3107 9.4952 64.6836 8.79495 65.232 8.24504C65.7804 7.69513 66.4796 7.3203 67.2412 7.168C68.0027 7.0157 68.7923 7.09278 69.51 7.38948C70.2277 7.68618 70.8413 8.18917 71.2729 8.83475C71.7046 9.48034 71.9351 10.2395 71.9351 11.0161C71.9322 12.0542 71.5193 13.049 70.7863 13.7841C70.0533 14.5191 69.0596 14.9347 68.0216 14.9404ZM68.0216 9.25395C67.6726 9.25181 67.3308 9.35333 67.0396 9.54565C66.7484 9.73798 66.5209 10.0124 66.3858 10.3342C66.2508 10.656 66.2144 11.0107 66.2811 11.3532C66.3479 11.6957 66.5149 12.0107 66.7609 12.2583C67.0069 12.5058 67.3209 12.6747 67.663 12.7436C68.0051 12.8125 68.36 12.7782 68.6826 12.6451C69.0052 12.5121 69.2811 12.2862 69.4752 11.9962C69.6693 11.7062 69.7729 11.3651 69.7729 11.0161C69.7729 10.5506 69.5887 10.104 69.2606 9.77388C68.9325 9.44372 68.487 9.2568 68.0216 9.25395Z" fill="#4666A6"/>
<path d="M57.9783 14.9404C57.2017 14.9426 56.4419 14.7142 55.7952 14.2843C55.1484 13.8544 54.6437 13.2423 54.345 12.5254C54.0464 11.8085 53.9671 11.0191 54.1173 10.2572C54.2675 9.4952 54.6404 8.79495 55.1888 8.24504C55.7372 7.69513 56.4364 7.3203 57.198 7.168C57.9595 7.0157 58.7491 7.09278 59.4668 7.38948C60.1845 7.68618 60.798 8.18917 61.2297 8.83475C61.6614 9.48034 61.8919 10.2395 61.8919 11.0161C61.889 12.0542 61.4761 13.049 60.7431 13.7841C60.0101 14.5191 59.0164 14.9347 57.9783 14.9404ZM57.9783 9.25395C57.6294 9.25181 57.2876 9.35333 56.9964 9.54565C56.7052 9.73798 56.4777 10.0124 56.3426 10.3342C56.2076 10.656 56.1712 11.0107 56.2379 11.3532C56.3047 11.6957 56.4717 12.0107 56.7177 12.2583C56.9637 12.5058 57.2776 12.6747 57.6198 12.7436C57.9619 12.8125 58.3167 12.7782 58.6394 12.6451C58.962 12.5121 59.2378 12.2862 59.432 11.9962C59.6261 11.7062 59.7297 11.3651 59.7297 11.0161C59.7297 10.5506 59.5455 10.104 59.2174 9.77388C58.8893 9.44372 58.4438 9.2568 57.9783 9.25395Z" fill="#4666A6"/>
<path d="M47.9243 14.9407C47.15 14.9322 46.3956 14.6948 45.756 14.2584C45.1163 13.822 44.6201 13.2062 44.3297 12.4884C44.0393 11.7706 43.9677 10.983 44.124 10.2246C44.2802 9.46624 44.6574 8.77104 45.2079 8.22653C45.7584 7.68202 46.4577 7.31254 47.2177 7.16459C47.9777 7.01664 48.7646 7.09684 49.4791 7.39509C50.1937 7.69334 50.804 8.19632 51.2334 8.8407C51.6627 9.48508 51.8918 10.2421 51.8919 11.0164C51.8919 11.5354 51.789 12.0492 51.589 12.5282C51.3891 13.0072 51.0962 13.4417 50.7272 13.8067C50.3582 14.1717 49.9205 14.4598 49.4393 14.6545C48.9582 14.8491 48.4433 14.9464 47.9243 14.9407ZM47.9243 9.25421C47.5777 9.26272 47.2414 9.37325 46.9573 9.57198C46.6733 9.77071 46.4542 10.0488 46.3274 10.3714C46.2007 10.6941 46.1719 11.047 46.2447 11.3859C46.3175 11.7248 46.4886 12.0348 46.7367 12.2769C46.9848 12.519 47.2988 12.6826 47.6394 12.7472C47.9799 12.8117 48.332 12.7744 48.6515 12.6399C48.971 12.5053 49.2437 12.2795 49.4355 11.9907C49.6272 11.702 49.7296 11.363 49.7297 11.0164C49.7298 10.7813 49.6828 10.5485 49.5915 10.3319C49.5003 10.1152 49.3666 9.919 49.1984 9.75479C49.0301 9.59058 48.8307 9.4617 48.6119 9.37573C48.3931 9.28976 48.1593 9.24844 47.9243 9.25421Z" fill="#4666A6"/>
<path d="M74.5945 77.8377H5.40535C4.54519 77.8377 3.72026 77.496 3.11203 76.8877C2.50381 76.2795 2.16211 75.4546 2.16211 74.5944V18.7998C2.16211 18.5131 2.27601 18.2381 2.47875 18.0354C2.68149 17.8327 2.95647 17.7188 3.24319 17.7188H76.7567C77.0434 17.7188 77.3184 17.8327 77.5211 18.0354C77.7239 18.2381 77.8378 18.5131 77.8378 18.7998V74.5944C77.8378 75.4546 77.4961 76.2795 76.8879 76.8877C76.2796 77.496 75.4547 77.8377 74.5945 77.8377ZM4.32427 19.8809V74.5944C4.32427 74.8811 4.43817 75.1561 4.64091 75.3589C4.84365 75.5616 5.11863 75.6755 5.40535 75.6755H74.5945C74.8813 75.6755 75.1562 75.5616 75.359 75.3589C75.5617 75.1561 75.6756 74.8811 75.6756 74.5944V19.8809H4.32427Z" fill="#4666A6"/>
<path d="M76.7567 19.8702H3.24319C2.95647 19.8702 2.68149 19.7563 2.47875 19.5536C2.27601 19.3508 2.16211 19.0759 2.16211 18.7891V5.40535C2.16211 4.54519 2.50381 3.72026 3.11203 3.11203C3.72026 2.50381 4.54519 2.16211 5.40535 2.16211H74.5945C75.4547 2.16211 76.2796 2.50381 76.8879 3.11203C77.4961 3.72026 77.8378 4.54519 77.8378 5.40535V18.7891C77.8378 19.0759 77.7239 19.3508 77.5211 19.5536C77.3184 19.7563 77.0434 19.8702 76.7567 19.8702ZM4.32427 17.7081H75.6756V5.40535C75.6756 5.11863 75.5617 4.84365 75.359 4.64091C75.1562 4.43817 74.8813 4.32427 74.5945 4.32427H5.40535C5.11863 4.32427 4.84365 4.43817 4.64091 4.64091C4.43817 4.84365 4.32427 5.11863 4.32427 5.40535V17.7081Z" fill="#4666A6"/>
<path d="M28.6702 65.2866C27.0864 65.3603 25.5375 64.8051 24.3611 63.742C23.1846 62.679 22.4759 61.1941 22.3892 59.6109C22.4759 58.0277 23.1846 56.5428 24.3611 55.4798C25.5375 54.4167 27.0864 53.8616 28.6702 53.9352C30.2552 53.8615 31.8053 54.4163 32.9834 55.4791C34.1616 56.5419 34.8727 58.0267 34.9621 59.6109C34.8727 61.1951 34.1616 62.6799 32.9834 63.7427C31.8053 64.8055 30.2552 65.3603 28.6702 65.2866ZM28.6702 56.0974C27.66 56.0254 26.6619 56.3535 25.8914 57.0108C25.1208 57.6681 24.6395 58.6019 24.5513 59.6109C24.6395 60.6199 25.1208 61.5537 25.8914 62.211C26.6619 62.8683 27.66 63.1964 28.6702 63.1244C29.6816 63.1965 30.6809 62.8688 31.4532 62.2117C32.2255 61.5547 32.7091 60.6208 32.8 59.6109C32.7091 58.601 32.2255 57.6672 31.4532 57.0101C30.6809 56.3531 29.6816 56.0253 28.6702 56.0974Z" fill="#4666A6"/>
<path d="M51.6434 60.6918C50.0675 60.751 48.5313 60.1896 47.3649 59.1284C46.1985 58.0671 45.495 56.5906 45.4055 55.0162C45.495 53.432 46.206 51.9471 47.3842 50.8844C48.5624 49.8216 50.1124 49.2668 51.6974 49.3405C53.2813 49.2668 54.8301 49.822 56.0066 50.885C57.183 51.9481 57.8918 53.4329 57.9785 55.0162C57.9357 55.805 57.7378 56.5776 57.3961 57.2899C57.0545 58.0021 56.5758 58.6401 55.9874 59.1672C55.399 59.6943 54.7125 60.1003 53.9671 60.3619C53.2217 60.6235 52.4321 60.7356 51.6434 60.6918ZM51.6434 51.5027C50.6403 51.4425 49.6533 51.7759 48.8922 52.432C48.1311 53.0881 47.6559 54.0152 47.5677 55.0162C47.6559 56.0271 48.1387 56.9627 48.9116 57.6203C49.6845 58.2779 50.6854 58.6046 51.6974 58.5297C52.7077 58.6016 53.7057 58.2736 54.4762 57.6163C55.2468 56.959 55.7281 56.0251 55.8163 55.0162C55.7283 53.9971 55.2394 53.0546 54.457 52.3958C53.6745 51.737 52.6625 51.4158 51.6434 51.5027Z" fill="#4666A6"/>
<path d="M33.881 60.6919C33.5943 60.6919 33.3193 60.578 33.1165 60.3753C32.9138 60.1725 32.7999 59.8976 32.7999 59.6108V35.0271C32.7966 34.7679 32.8864 34.5162 33.0531 34.3178C33.2198 34.1194 33.4522 33.9874 33.708 33.946L56.6702 30.2703C56.8259 30.245 56.9853 30.2542 57.1371 30.2971C57.289 30.34 57.4296 30.4156 57.5491 30.5186C57.6686 30.6216 57.7641 30.7496 57.8289 30.8934C57.8937 31.0373 57.9263 31.1936 57.9242 31.3514V55.0162C57.9242 55.303 57.8103 55.5779 57.6076 55.7807C57.4048 55.9834 57.1299 56.0973 56.8431 56.0973C56.5564 56.0973 56.2814 55.9834 56.0787 55.7807C55.876 55.5779 55.7621 55.303 55.7621 55.0162V32.6162L34.9621 35.946V59.6108C34.9621 59.8976 34.8482 60.1725 34.6454 60.3753C34.4427 60.578 34.1677 60.6919 33.881 60.6919Z" fill="#4666A6"/>
<path d="M33.8703 43.8916C33.7283 43.9023 33.5856 43.8848 33.4504 43.8404C33.3152 43.7959 33.19 43.7252 33.0821 43.6323C32.8641 43.4448 32.7296 43.1783 32.7081 42.8916C32.6866 42.6049 32.7799 42.3214 32.9674 42.1034C33.155 41.8855 33.4214 41.751 33.7081 41.7295L56.6703 38.0538C56.8122 38.0311 56.9573 38.0365 57.0971 38.0699C57.237 38.1032 57.3689 38.1638 57.4854 38.2481C57.6018 38.3324 57.7005 38.4389 57.7758 38.5614C57.8511 38.6838 57.9016 38.8199 57.9243 38.9619C57.947 39.1039 57.9416 39.2489 57.9082 39.3888C57.8749 39.5286 57.8143 39.6605 57.73 39.777C57.6457 39.8934 57.5392 39.9921 57.4168 40.0675C57.2943 40.1428 57.1582 40.1932 57.0162 40.2159L34.0433 43.8916H33.8703Z" fill="#4666A6"/>
</svg>
