<svg width="90" height="80" viewBox="0 0 90 80" fill="none" xmlns="http://www.w3.org/2000/svg">
<path d="M85.9976 17.9625C85.8688 17.8191 85.7065 17.7033 85.5222 17.6233C85.338 17.5433 85.1364 17.5012 84.932 17.5H83.7141V3.75C83.7141 3.41848 83.5683 3.10054 83.3088 2.86612C83.0493 2.6317 82.6972 2.5 82.3302 2.5H54.6516C54.2846 2.5 53.9326 2.6317 53.6731 2.86612C53.4135 3.10054 53.2677 3.41848 53.2677 3.75V17.5H52.0499C51.8454 17.5012 51.6439 17.5433 51.4596 17.6233C51.2754 17.7033 51.113 17.8191 50.9842 17.9625C50.8532 18.1072 50.7602 18.2769 50.7123 18.4588C50.6643 18.6406 50.6627 18.83 50.7074 19.0125L51.9115 24.0125C51.9781 24.2925 52.1491 24.5434 52.396 24.7232C52.6429 24.9029 52.9506 25.0007 53.2677 25H83.7141C84.0312 25.0007 84.339 24.9029 84.5859 24.7232C84.8327 24.5434 85.0038 24.2925 85.0704 24.0125L86.2744 19.0125C86.3192 18.83 86.3175 18.6406 86.2696 18.4588C86.2216 18.2769 86.1286 18.1072 85.9976 17.9625ZM56.0356 5H80.9463V17.5H71.2588C70.8917 17.5 70.5397 17.6317 70.2802 17.8661C70.0207 18.1005 69.8748 18.4185 69.8748 18.75H67.107C67.107 18.4185 66.9612 18.1005 66.7017 17.8661C66.4421 17.6317 66.0901 17.5 65.7231 17.5H56.0356V5ZM82.607 22.5H54.3749L53.7798 20H64.3391C64.3391 20.3315 64.4849 20.6495 64.7445 20.8839C65.004 21.1183 65.356 21.25 65.7231 21.25H71.2588C71.6258 21.25 71.9778 21.1183 72.2374 20.8839C72.4969 20.6495 72.6427 20.3315 72.6427 20H83.2021L82.607 22.5Z" fill="#4666A6"/>
<path d="M29.7409 52.5H7.59807C6.49796 52.503 5.44385 52.899 4.66595 53.6016C3.88805 54.3042 3.44957 55.2564 3.44629 56.25V68.75C3.44957 69.7436 3.88805 70.6957 4.66595 71.3984C5.44385 72.101 6.49796 72.497 7.59807 72.5H12.8432L11.9159 75.95C11.8622 76.1343 11.8567 76.3275 11.8999 76.5141C11.9432 76.7007 12.0339 76.8756 12.165 77.025C12.2954 77.174 12.4616 77.2942 12.651 77.3765C12.8404 77.4588 13.0481 77.501 13.2583 77.5H24.0807C24.2909 77.501 24.4986 77.4588 24.688 77.3765C24.8775 77.2942 25.0436 77.174 25.174 77.025C25.3051 76.8756 25.3958 76.7007 25.4391 76.5141C25.4823 76.3275 25.4768 76.1343 25.4231 75.95L24.4958 72.5H29.7409C30.841 72.497 31.8952 72.101 32.6731 71.3984C33.451 70.6957 33.8894 69.7436 33.8927 68.75V56.25C33.8894 55.2564 33.451 54.3042 32.6731 53.6016C31.8952 52.899 30.841 52.503 29.7409 52.5ZM15.0159 75L15.6941 72.5H21.645L22.3231 75H15.0159ZM31.1249 68.75C31.1249 69.0815 30.9791 69.3995 30.7195 69.6339C30.46 69.8683 30.108 70 29.7409 70H7.59807C7.23103 70 6.87903 69.8683 6.61949 69.6339C6.35995 69.3995 6.21415 69.0815 6.21415 68.75V67.5H31.1249V68.75ZM31.1249 65H6.21415V56.25C6.21415 55.9185 6.35995 55.6005 6.61949 55.3661C6.87903 55.1317 7.23103 55 7.59807 55H29.7409C30.108 55 30.46 55.1317 30.7195 55.3661C30.9791 55.6005 31.1249 55.9185 31.1249 56.25V65Z" fill="#4666A6"/>
<path d="M82.3301 50H71.2587C70.1586 50.003 69.1045 50.399 68.3266 51.1016C67.5487 51.8042 67.1102 52.7564 67.1069 53.75V73.75C67.1102 74.7436 67.5487 75.6958 68.3266 76.3984C69.1045 77.101 70.1586 77.497 71.2587 77.5H82.3301C83.4303 77.497 84.4844 77.101 85.2623 76.3984C86.0402 75.6958 86.4786 74.7436 86.4819 73.75V53.75C86.4786 52.7564 86.0402 51.8042 85.2623 51.1016C84.4844 50.399 83.4303 50.003 82.3301 50ZM79.5623 52.5C79.5623 52.8315 79.4165 53.1495 79.1569 53.3839C78.8974 53.6183 78.5454 53.75 78.1784 53.75H75.4105C75.0435 53.75 74.6915 53.6183 74.4319 53.3839C74.1724 53.1495 74.0266 52.8315 74.0266 52.5H79.5623ZM83.7141 73.75C83.7141 74.0815 83.5683 74.3995 83.3087 74.6339C83.0492 74.8683 82.6972 75 82.3301 75H71.2587C70.8917 75 70.5397 74.8683 70.2801 74.6339C70.0206 74.3995 69.8748 74.0815 69.8748 73.75V53.75C69.8748 53.4185 70.0206 53.1005 70.2801 52.8661C70.5397 52.6317 70.8917 52.5 71.2587 52.5C71.262 53.4936 71.7005 54.4458 72.4784 55.1484C73.2563 55.851 74.3104 56.247 75.4105 56.25H78.1784C79.2785 56.247 80.3326 55.851 81.1105 55.1484C81.8884 54.4458 82.3269 53.4936 82.3301 52.5C82.6972 52.5 83.0492 52.6317 83.3087 52.8661C83.5683 53.1005 83.7141 53.4185 83.7141 53.75V73.75Z" fill="#4666A6"/>
<path d="M24.2052 2.5H7.59807C6.49796 2.50297 5.44385 2.89901 4.66595 3.60163C3.88805 4.30425 3.44957 5.25635 3.44629 6.25V26.25C3.44957 27.2436 3.88805 28.1958 4.66595 28.8984C5.44385 29.601 6.49796 29.997 7.59807 30H24.2052C25.3053 29.997 26.3594 29.601 27.1373 28.8984C27.9152 28.1958 28.3537 27.2436 28.357 26.25V6.25C28.3537 5.25635 27.9152 4.30425 27.1373 3.60163C26.3594 2.89901 25.3053 2.50297 24.2052 2.5ZM25.5891 26.25C25.5891 26.5815 25.4433 26.8995 25.1838 27.1339C24.9243 27.3683 24.5723 27.5 24.2052 27.5H7.59807C7.23103 27.5 6.87903 27.3683 6.61949 27.1339C6.35995 26.8995 6.21415 26.5815 6.21415 26.25V6.25C6.21415 5.91848 6.35995 5.60054 6.61949 5.36612C6.87903 5.1317 7.23103 5 7.59807 5H24.2052C24.5723 5 24.9243 5.1317 25.1838 5.36612C25.4433 5.60054 25.5891 5.91848 25.5891 6.25V26.25Z" fill="#4666A6"/>
<path d="M17.2857 22.5H14.5178V25H17.2857V22.5Z" fill="#4666A6"/>
<path d="M58.9695 36.375L55.6481 36L57.7102 33.6125C57.9172 33.3716 58.0189 33.0703 57.996 32.7661C57.973 32.4618 57.8269 32.1758 57.5856 31.9625L53.8628 28.6C53.6258 28.3835 53.3093 28.2526 52.973 28.2319C52.6366 28.2112 52.3035 28.3021 52.0361 28.4875L49.3928 30.35L48.9776 27.35C48.9331 27.0465 48.7684 26.7679 48.5139 26.5656C48.2595 26.3634 47.9326 26.2513 47.5936 26.25H42.3347C41.9958 26.2513 41.6689 26.3634 41.4144 26.5656C41.16 26.7679 40.9953 27.0465 40.9508 27.35L40.5356 30.35L37.8923 28.4875C37.6249 28.3021 37.2917 28.2112 36.9554 28.2319C36.619 28.2526 36.3026 28.3835 36.0655 28.6L32.3428 31.9625C32.1014 32.1758 31.9554 32.4618 31.9324 32.7661C31.9094 33.0703 32.0112 33.3716 32.2182 33.6125L34.2803 36L30.9588 36.375C30.6228 36.4152 30.3143 36.564 30.0904 36.7938C29.8665 37.0236 29.7424 37.3189 29.741 37.625V42.375C29.7424 42.6811 29.8665 42.9764 30.0904 43.2062C30.3143 43.436 30.6228 43.5848 30.9588 43.625L34.2803 44L32.2182 46.3875C32.0112 46.6284 31.9094 46.9297 31.9324 47.2339C31.9554 47.5382 32.1014 47.8242 32.3428 48.0375L36.0655 51.4C36.3026 51.6165 36.619 51.7474 36.9554 51.7681C37.2917 51.7888 37.6249 51.6979 37.8923 51.5125L40.5356 49.65L40.9508 52.65C40.9953 52.9535 41.16 53.2321 41.4144 53.4344C41.6689 53.6366 41.9958 53.7487 42.3347 53.75H47.5936C47.9326 53.7487 48.2595 53.6366 48.5139 53.4344C48.7684 53.2321 48.9331 52.9535 48.9776 52.65L49.3928 49.65L52.0361 51.5125C52.3035 51.6979 52.6366 51.7888 52.973 51.7681C53.3093 51.7474 53.6258 51.6165 53.8628 51.4L57.5856 48.0375C57.8269 47.8242 57.973 47.5382 57.996 47.2339C58.0189 46.9297 57.9172 46.6284 57.7102 46.3875L55.6481 44L58.9695 43.625C59.3055 43.5848 59.614 43.436 59.8379 43.2062C60.0618 42.9764 60.186 42.6811 60.1874 42.375V37.625C60.186 37.3189 60.0618 37.0236 59.8379 36.7938C59.614 36.564 59.3055 36.4152 58.9695 36.375ZM57.4195 41.275L54.1396 41.65C53.8818 41.6774 53.6379 41.7707 53.4369 41.9191C53.2358 42.0675 53.0859 42.2647 53.0048 42.4875C52.8803 42.7875 52.7419 43.0875 52.5896 43.375C52.4735 43.584 52.4261 43.8188 52.4531 44.0514C52.4801 44.284 52.5803 44.5047 52.7419 44.6875L54.7762 47.05L52.7695 48.8625L50.1539 47.025C49.9516 46.8791 49.7072 46.7885 49.4496 46.7642C49.1921 46.7398 48.9322 46.7826 48.7008 46.8875C48.3758 47.0275 48.0433 47.1527 47.7044 47.2625C47.4607 47.3384 47.2457 47.4748 47.0841 47.6561C46.9226 47.8375 46.8209 48.0563 46.791 48.2875L46.3758 51.25H43.5526L43.1374 48.2875C43.1074 48.0563 43.0058 47.8375 42.8442 47.6561C42.6826 47.4748 42.4676 47.3384 42.224 47.2625C41.8851 47.1527 41.5525 47.0275 41.2276 46.8875C40.9961 46.7826 40.7363 46.7398 40.4787 46.7642C40.2212 46.7885 39.9768 46.8791 39.7744 47.025L37.1588 48.8625L35.1521 47.05L37.1865 44.6875C37.3481 44.5047 37.4483 44.284 37.4753 44.0514C37.5023 43.8188 37.4549 43.584 37.3387 43.375C37.1865 43.0875 37.0481 42.7875 36.9236 42.4875C36.8425 42.2647 36.6926 42.0675 36.4915 41.9191C36.2904 41.7707 36.0466 41.6774 35.7887 41.65L32.5088 41.275V38.725L35.7887 38.35C36.0466 38.3226 36.2904 38.2293 36.4915 38.0809C36.6926 37.9325 36.8425 37.7353 36.9236 37.5125C37.0481 37.2125 37.1865 36.9125 37.3387 36.625C37.4549 36.416 37.5023 36.1812 37.4753 35.9486C37.4483 35.716 37.3481 35.4953 37.1865 35.3125L35.1521 32.95L37.1588 31.1375L39.7744 32.975C39.9768 33.1209 40.2212 33.2115 40.4787 33.2358C40.7363 33.2602 40.9961 33.2174 41.2276 33.1125C41.5459 32.975 41.878 32.85 42.2102 32.7375C42.4568 32.6643 42.6752 32.5289 42.8394 32.3473C43.0037 32.1657 43.1071 31.9454 43.1374 31.7125L43.5526 28.75H46.3758L46.791 31.7125C46.8213 31.9454 46.9246 32.1657 47.0889 32.3473C47.2532 32.5289 47.4715 32.6643 47.7182 32.7375C48.0503 32.85 48.3825 32.975 48.7008 33.1125C48.9322 33.2174 49.1921 33.2602 49.4496 33.2358C49.7072 33.2115 49.9516 33.1209 50.1539 32.975L52.7695 31.1375L54.7762 32.95L52.7419 35.3125C52.5803 35.4953 52.4801 35.716 52.4531 35.9486C52.4261 36.1812 52.4735 36.416 52.5896 36.625C52.7419 36.9125 52.8803 37.2125 53.0048 37.5125C53.0859 37.7353 53.2358 37.9325 53.4369 38.0809C53.6379 38.2293 53.8818 38.3226 54.1396 38.35L57.4195 38.725V41.275Z" fill="#4666A6"/>
<path d="M51.8837 40C51.8837 38.7639 51.4779 37.5555 50.7176 36.5277C49.9572 35.4999 48.8765 34.6988 47.6121 34.2258C46.3477 33.7527 44.9564 33.6289 43.6141 33.8701C42.2718 34.1113 41.0389 34.7065 40.0712 35.5806C39.1034 36.4547 38.4444 37.5683 38.1774 38.7807C37.9104 39.9931 38.0474 41.2497 38.5712 42.3918C39.0949 43.5338 39.9818 44.5099 41.1197 45.1967C42.2577 45.8834 43.5955 46.25 44.9641 46.25C46.7986 46.248 48.5574 45.5889 49.8546 44.4172C51.1518 43.2455 51.8815 41.657 51.8837 40ZM44.9641 43.75C44.1429 43.75 43.3402 43.5301 42.6575 43.118C41.9747 42.706 41.4426 42.1203 41.1283 41.4351C40.8141 40.7498 40.7319 39.9958 40.8921 39.2684C41.0523 38.541 41.4477 37.8728 42.0283 37.3484C42.609 36.8239 43.3487 36.4668 44.1541 36.3221C44.9595 36.1774 45.7943 36.2516 46.5529 36.5355C47.3115 36.8193 47.96 37.2999 48.4162 37.9166C48.8724 38.5333 49.1159 39.2583 49.1159 40C49.1159 40.9946 48.6785 41.9484 47.8998 42.6516C47.1212 43.3549 46.0652 43.75 44.9641 43.75Z" fill="#4666A6"/>
<path d="M62.9553 37.5V40H68.491C68.8581 40 69.2101 39.8683 69.4696 39.6339C69.7292 39.3995 69.875 39.0815 69.875 38.75V27.5H67.1071V37.5H62.9553Z" fill="#4666A6"/>
<path d="M15.9016 40V50H18.6695V41.25H26.973V38.75H17.2855C16.9185 38.75 16.5665 38.8817 16.307 39.1161C16.0474 39.3505 15.9016 39.6685 15.9016 40Z" fill="#4666A6"/>
<path d="M43.5801 23.75H46.348V16.25C46.348 15.9185 46.2022 15.6005 45.9426 15.3661C45.6831 15.1317 45.3311 15 44.964 15H31.1248V17.5H43.5801V23.75Z" fill="#4666A6"/>
<path d="M46.3482 56.25H43.5803V66.25C43.5803 66.5815 43.7261 66.8995 43.9857 67.1339C44.2452 67.3683 44.5972 67.5 44.9643 67.5H64.3393V65H46.3482V56.25Z" fill="#4666A6"/>
</svg>
